<mxfile host="app.diagrams.net" modified="2024-04-11T22:29:07.288Z" agent="Mozilla/5.0 (Macintosh; Intel Mac OS X 10_15_7) AppleWebKit/537.36 (KHTML, like Gecko) Chrome/123.0.0.0 Safari/537.36" etag="Fh0hujr-XTp3kaFdgiwk" version="24.2.3" type="github">
  <diagram name="Page-1" id="P0cvuvAjGZ7kRUOyp0J7">
    <mxGraphModel dx="912" dy="571" grid="1" gridSize="10" guides="1" tooltips="1" connect="1" arrows="1" fold="1" page="1" pageScale="1" pageWidth="827" pageHeight="1169" math="0" shadow="0">
      <root>
        <mxCell id="0" />
        <mxCell id="1" parent="0" />
        <mxCell id="021ucSZtV93VsVB-6u-i-1" value="&lt;font style=&quot;font-size: 20px;&quot;&gt;Start&lt;/font&gt;" style="ellipse;whiteSpace=wrap;html=1;" vertex="1" parent="1">
          <mxGeometry x="280" y="40" width="170" height="90" as="geometry" />
        </mxCell>
        <mxCell id="021ucSZtV93VsVB-6u-i-3" value="Take numerator n and denominator d from user" style="shape=parallelogram;perimeter=parallelogramPerimeter;whiteSpace=wrap;html=1;fixedSize=1;" vertex="1" parent="1">
          <mxGeometry x="272.5" y="170" width="185" height="70" as="geometry" />
        </mxCell>
        <mxCell id="021ucSZtV93VsVB-6u-i-4" value="" style="endArrow=classic;html=1;rounded=0;exitX=0.5;exitY=1;exitDx=0;exitDy=0;entryX=0.5;entryY=0;entryDx=0;entryDy=0;" edge="1" parent="1" source="021ucSZtV93VsVB-6u-i-1" target="021ucSZtV93VsVB-6u-i-3">
          <mxGeometry width="50" height="50" relative="1" as="geometry">
            <mxPoint x="390" y="320" as="sourcePoint" />
            <mxPoint x="440" y="270" as="targetPoint" />
          </mxGeometry>
        </mxCell>
        <mxCell id="021ucSZtV93VsVB-6u-i-20" style="edgeStyle=orthogonalEdgeStyle;rounded=0;orthogonalLoop=1;jettySize=auto;html=1;" edge="1" parent="1" source="021ucSZtV93VsVB-6u-i-5" target="021ucSZtV93VsVB-6u-i-15">
          <mxGeometry relative="1" as="geometry" />
        </mxCell>
        <mxCell id="021ucSZtV93VsVB-6u-i-21" value="No" style="edgeLabel;html=1;align=center;verticalAlign=middle;resizable=0;points=[];" vertex="1" connectable="0" parent="021ucSZtV93VsVB-6u-i-20">
          <mxGeometry x="-0.232" y="1" relative="1" as="geometry">
            <mxPoint as="offset" />
          </mxGeometry>
        </mxCell>
        <mxCell id="021ucSZtV93VsVB-6u-i-5" value="is d = 0?" style="rhombus;whiteSpace=wrap;html=1;" vertex="1" parent="1">
          <mxGeometry x="325" y="290" width="80" height="80" as="geometry" />
        </mxCell>
        <mxCell id="021ucSZtV93VsVB-6u-i-6" value="" style="endArrow=classic;html=1;rounded=0;exitX=0.5;exitY=1;exitDx=0;exitDy=0;entryX=0.5;entryY=0;entryDx=0;entryDy=0;" edge="1" parent="1" source="021ucSZtV93VsVB-6u-i-3" target="021ucSZtV93VsVB-6u-i-5">
          <mxGeometry width="50" height="50" relative="1" as="geometry">
            <mxPoint x="390" y="320" as="sourcePoint" />
            <mxPoint x="440" y="270" as="targetPoint" />
          </mxGeometry>
        </mxCell>
        <mxCell id="021ucSZtV93VsVB-6u-i-7" value="display &quot;denominator cannot == 0&quot;" style="shape=parallelogram;perimeter=parallelogramPerimeter;whiteSpace=wrap;html=1;fixedSize=1;" vertex="1" parent="1">
          <mxGeometry x="510" y="300" width="150" height="60" as="geometry" />
        </mxCell>
        <mxCell id="021ucSZtV93VsVB-6u-i-8" value="" style="endArrow=classic;html=1;rounded=0;exitX=1;exitY=0.5;exitDx=0;exitDy=0;entryX=0;entryY=0.5;entryDx=0;entryDy=0;" edge="1" parent="1" source="021ucSZtV93VsVB-6u-i-5" target="021ucSZtV93VsVB-6u-i-7">
          <mxGeometry width="50" height="50" relative="1" as="geometry">
            <mxPoint x="390" y="320" as="sourcePoint" />
            <mxPoint x="440" y="270" as="targetPoint" />
          </mxGeometry>
        </mxCell>
        <mxCell id="021ucSZtV93VsVB-6u-i-9" value="Yes" style="edgeLabel;html=1;align=center;verticalAlign=middle;resizable=0;points=[];" vertex="1" connectable="0" parent="021ucSZtV93VsVB-6u-i-8">
          <mxGeometry x="0.2696" y="4" relative="1" as="geometry">
            <mxPoint x="-20" as="offset" />
          </mxGeometry>
        </mxCell>
        <mxCell id="021ucSZtV93VsVB-6u-i-12" value="&lt;font style=&quot;font-size: 20px;&quot;&gt;Stop&lt;/font&gt;" style="ellipse;whiteSpace=wrap;html=1;" vertex="1" parent="1">
          <mxGeometry x="277.5" y="530" width="175" height="80" as="geometry" />
        </mxCell>
        <mxCell id="021ucSZtV93VsVB-6u-i-14" value="" style="endArrow=classic;html=1;rounded=0;exitX=0.5;exitY=1;exitDx=0;exitDy=0;entryX=0.5;entryY=0;entryDx=0;entryDy=0;" edge="1" parent="1" source="021ucSZtV93VsVB-6u-i-7" target="021ucSZtV93VsVB-6u-i-12">
          <mxGeometry width="50" height="50" relative="1" as="geometry">
            <mxPoint x="390" y="340" as="sourcePoint" />
            <mxPoint x="440" y="290" as="targetPoint" />
            <Array as="points">
              <mxPoint x="585" y="480" />
              <mxPoint x="365" y="480" />
            </Array>
          </mxGeometry>
        </mxCell>
        <mxCell id="021ucSZtV93VsVB-6u-i-19" value="" style="edgeStyle=orthogonalEdgeStyle;rounded=0;orthogonalLoop=1;jettySize=auto;html=1;" edge="1" parent="1" source="021ucSZtV93VsVB-6u-i-15" target="021ucSZtV93VsVB-6u-i-17">
          <mxGeometry relative="1" as="geometry" />
        </mxCell>
        <mxCell id="021ucSZtV93VsVB-6u-i-15" value="Calculate q = n / d" style="rounded=0;whiteSpace=wrap;html=1;" vertex="1" parent="1">
          <mxGeometry x="80" y="300" width="120" height="60" as="geometry" />
        </mxCell>
        <mxCell id="021ucSZtV93VsVB-6u-i-23" style="edgeStyle=orthogonalEdgeStyle;rounded=0;orthogonalLoop=1;jettySize=auto;html=1;entryX=0.5;entryY=0;entryDx=0;entryDy=0;" edge="1" parent="1" source="021ucSZtV93VsVB-6u-i-17" target="021ucSZtV93VsVB-6u-i-12">
          <mxGeometry relative="1" as="geometry">
            <mxPoint x="370" y="480" as="targetPoint" />
          </mxGeometry>
        </mxCell>
        <mxCell id="021ucSZtV93VsVB-6u-i-17" value="Display q" style="shape=parallelogram;perimeter=parallelogramPerimeter;whiteSpace=wrap;html=1;fixedSize=1;" vertex="1" parent="1">
          <mxGeometry x="80" y="450" width="120" height="60" as="geometry" />
        </mxCell>
      </root>
    </mxGraphModel>
  </diagram>
</mxfile>
